<?xml version="1.0" encoding="UTF-8"?><svg id="Layer_2" xmlns="http://www.w3.org/2000/svg" viewBox="0 0 83.79 35.7"><defs><style>.cls-1{fill:#fff}.cls-2{isolation:isolate}</style></defs><g id="Layer_1-2"><g id="Group_8829"><path class="cls-1" d="M64.69 14.48c.05-2.23.86-4.38 2.3-6.09a9.266 9.266 0 0 1 4.67-3c.67-.17 1.35-.29 2.03-.34.6-.04 1.21-.02 1.81.06 1.07.12 2.11.43 3.06.91 1.09.53 2.07 1.27 2.87 2.17.9.97 1.56 2.14 1.93 3.41.13.47.28.93.38 1.41.06.69-.24 1.36-.8 1.76-.88.58-2.07.34-2.65-.55a1.93 1.93 0 0 1-.29-.73 5.844 5.844 0 0 0-4.21-4.57 4.65 4.65 0 0 0-1.48-.21c-1.09.03-2.16.34-3.1.91-1.1.68-1.94 1.72-2.39 2.94-.37.98-.43 2.05-.19 3.07a5.768 5.768 0 0 0 3.76 4.24c.34.12.69.19 1.05.22.41.06.82.09 1.23.09.32 0 .64-.07.96-.09.74.07 1.39.55 1.67 1.24.31.91-.12 1.9-1 2.29-.18.08-.37.14-.56.17-.59.07-1.19.11-1.79.1-.62-.05-1.24-.13-1.85-.26-.92-.19-1.79-.53-2.59-1.02-.88-.5-1.68-1.14-2.35-1.9a8.712 8.712 0 0 1-1.63-2.56c-.23-.62-.42-1.25-.57-1.9-.13-.59-.19-1.19-.28-1.78" id="Fill_1"/><path class="cls-1" d="M43.27 14.73c-.05-2 .53-3.96 1.66-5.6a9.047 9.047 0 0 1 4.15-3.33c.7-.26 1.42-.46 2.16-.61.48-.14.98-.2 1.48-.18.84-.07 1.68.09 2.45.45.5.47.76 1.14.72 1.82-.2.93-1.04 1.57-1.99 1.52-.32-.02-.64-.09-.96-.08-.37 0-.73.04-1.09.1-.79.14-1.54.44-2.21.87-.97.62-1.72 1.52-2.16 2.58-.39.89-.54 1.87-.42 2.84.11.94.46 1.84 1 2.61.7 1 1.69 1.75 2.84 2.15.74.28 1.54.4 2.33.33a5.74 5.74 0 0 0 5.02-3.71c.15-.39.26-.79.33-1.2.12-.6.54-1.09 1.11-1.31.94-.4 2.03.04 2.42.98.02.06.05.12.06.18.11.52.08 1.05-.07 1.56a9.225 9.225 0 0 1-1.43 3.16c-.68.97-1.54 1.8-2.52 2.46-.97.66-2.06 1.13-3.21 1.38-.9.21-1.83.29-2.75.23a9.609 9.609 0 0 1-5.07-1.85 9.512 9.512 0 0 1-3.26-4.32c-.38-.96-.58-1.98-.59-3.01" id="Fill_3"/><path class="cls-1" d="M21.64 14.6c-.03-1.39.25-2.78.84-4.04a9.271 9.271 0 0 1 2.88-3.57 9.713 9.713 0 0 1 3.49-1.67c.53-.11 1.07-.19 1.61-.24.22-.04.44-.07.66-.08.25.01.5.04.74.07.36.02.71.06 1.06.12.6.14 1.07.59 1.25 1.18.29.78-.02 1.66-.72 2.1-.27.17-.58.28-.89.31-.41.04-.84-.06-1.26-.06-.37 0-.73.04-1.09.1-.81.14-1.57.44-2.25.89a5.527 5.527 0 0 0-2.34 3.16c-.14.52-.21 1.06-.22 1.6-.03 1.3.42 2.57 1.26 3.57.85 1.07 2.06 1.8 3.4 2.04a5.735 5.735 0 0 0 4.93-1.31c.85-.74 1.47-1.71 1.78-2.8.1-.34.14-.7.26-1.02.3-.69.97-1.13 1.72-1.15 1-.02 1.83.77 1.85 1.77 0 .06 0 .12 0 .18-.1 1.12-.44 2.2-1 3.18a9.506 9.506 0 0 1-3.42 3.59c-.88.56-1.85.95-2.88 1.16-.91.21-1.84.28-2.77.22a9.664 9.664 0 0 1-4.94-1.77A9.454 9.454 0 0 1 22 17.02c-.25-.78-.37-1.6-.34-2.42" id="Fill_5"/><path class="cls-1" d="M9.73 23.94c-2.43 0-4.78-.88-6.61-2.49a9.261 9.261 0 0 1-2.59-3.87c-.2-.59-.34-1.19-.42-1.81-.09-.63-.12-1.27-.11-1.91.04-.99.25-1.96.63-2.87a9.66 9.66 0 0 1 2.08-3.15 9.01 9.01 0 0 1 3.78-2.33c.8-.25 1.63-.41 2.47-.46.61-.04 1.21-.02 1.81.07 1.62.21 3.17.83 4.48 1.81a9.1 9.1 0 0 1 2.99 3.71c.29.72.51 1.47.68 2.23.21.82-.19 1.68-.96 2.04-.94.46-2.08.06-2.54-.88-.06-.13-.11-.27-.14-.41a5.96 5.96 0 0 0-2.16-3.64c-.67-.56-1.48-.93-2.34-1.08-.38-.08-.75-.14-1.14-.17-.36-.01-.72.02-1.07.1-.72.13-1.42.39-2.05.77a5.46 5.46 0 0 0-2.75 5.41 5.587 5.587 0 0 0 3.89 4.89c.72.26 1.49.36 2.25.31.27-.02.55-.07.82-.09.83.03 1.56.57 1.83 1.36.26.98-.33 1.99-1.31 2.25-.6.11-1.2.18-1.53.23" id="Fill_7"/><path class="cls-1" d="M40.67 5.5c0 1.69 0 3.38 0 5.07-.02.79-.57 1.48-1.34 1.68-.11.03-.23.04-.35.03-.88 0-1.76-.02-2.64 0-.82-.04-1.53-.59-1.77-1.38-.2-.86.22-1.74 1.02-2.11.31-.1.64-.16.97-.18.35-.03.37-.03.37-.37V.42q0-.42.43-.42c1 0 2 0 2.99 0 .25 0 .33.08.32.32 0 1.73 0 3.45 0 5.18z" id="Fill_10"/><path class="cls-1" d="M62.31 5.49c0 1.64-.03 3.28.01 4.91.03 1.02-.78 1.87-1.8 1.9-.03 0-.07 0-.1 0-.82-.06-1.65-.02-2.48 0-.75 0-1.41-.48-1.66-1.19-.27-.65-.12-1.41.38-1.91.39-.4.92-.61 1.48-.59.45 0 .46-.01.46-.45V.42q0-.42.41-.42c.99 0 1.98 0 2.97 0 .26 0 .34.08.34.34 0 1.72 0 3.44 0 5.15" id="Fill_12"/><path class="cls-1" d="M19.03 20.95c0 .89 0 1.78 0 2.67 0 .23-.07.31-.31.31-1.05-.01-2.1-.01-3.15 0-.22 0-.3-.07-.29-.29 0-.93 0-1.85 0-2.78 0-.55 0-.56-.55-.56-.6.01-1.17-.28-1.5-.78a1.794 1.794 0 0 1 1.03-2.8c.24-.05.47-.08.71-.09.7-.01 1.4 0 2.1 0 .89-.05 1.7.53 1.92 1.4.02.09.03.19.03.29v2.64z" id="Fill_14"/><path class="cls-1" d="M83.79 20.9c0 .9 0 1.8 0 2.7 0 .24-.06.33-.32.33-1.04-.01-2.09-.01-3.13 0-.26 0-.32-.09-.31-.33.01-.94 0-1.89 0-2.83 0-.45-.01-.47-.47-.47-.79.05-1.51-.43-1.77-1.17A1.77 1.77 0 0 1 79 16.72c.32-.06.65-.09.98-.1.66 0 1.31.01 1.97 0 1 0 1.82.8 1.84 1.8-.02.42 0 .84 0 1.25v1.23" id="Fill_16"/></g><g id="Ett_företag_inom_SKR" class="cls-2"><g class="cls-2"><path class="cls-1" d="M13.15 29.97h-2.34v1.4h2.05v.72h-2.05v1.45h2.34v.73h-3.13v-5.02h3.13v.73zm2.96 1.22h-.91v1.9c0 .15.04.27.13.36s.21.13.35.13h.38v.69h-.56c-.31 0-.57-.09-.76-.27a.942.942 0 0 1-.29-.71V31.2h-.66v-.67h.46c.08 0 .14-.02.19-.07.05-.05.07-.11.07-.19v-.72h.7v.97h.91v.67zm2.83 0h-.91v1.9c0 .15.04.27.13.36s.21.13.35.13h.38v.69h-.56c-.31 0-.57-.09-.76-.27a.942.942 0 0 1-.29-.71V31.2h-.66v-.67h.46c.08 0 .14-.02.19-.07.05-.05.07-.11.07-.19v-.72h.7v.97h.91v.67zm4.25-1.55c-.15 0-.27.04-.36.13-.09.09-.13.21-.13.36v.39h.86v.67h-.86v3.08h-.75v-3.08h-.66v-.67h.66V30c0-.29.1-.53.29-.71.19-.18.45-.27.76-.27h.56v.62h-.37zm2.45 4.72c-.47 0-.85-.13-1.14-.39-.29-.26-.43-.61-.43-1.04v-1.06c0-.43.14-.78.43-1.04s.67-.39 1.14-.39.85.13 1.13.39c.29.26.43.61.43 1.04v1.06c0 .43-.14.78-.43 1.04s-.66.39-1.13.39zm-.71-4.35c-.13 0-.23-.04-.31-.12s-.12-.19-.12-.32.04-.24.12-.32c.08-.08.19-.12.31-.12s.24.04.32.12c.08.08.12.18.12.32s-.04.24-.12.32c-.08.08-.19.12-.32.12zm.71 3.66c.24 0 .44-.07.59-.21.15-.14.22-.32.22-.54v-1.05c0-.22-.07-.41-.22-.54-.15-.14-.34-.21-.59-.21s-.44.07-.59.21a.71.71 0 0 0-.23.54v1.05c0 .22.08.41.23.54.15.14.35.21.59.21zm.71-3.66c-.13 0-.24-.04-.32-.12-.08-.08-.12-.19-.12-.32s.04-.24.12-.32c.08-.08.19-.12.32-.12s.23.04.31.12c.08.08.12.18.12.32s-.04.24-.12.32c-.08.08-.18.12-.31.12zm3.64.41h.14v.77h-.16c-.33 0-.59.1-.79.29-.2.19-.29.42-.29.7v2.09h-.75v-3.75h.75v.67h.05c.08-.24.21-.43.39-.56.18-.13.41-.2.67-.2zm3.77 2.26h-2.39v.27c0 .23.08.41.23.55.15.14.36.21.61.21.24 0 .43-.05.58-.15.15-.1.22-.23.22-.4s.75-.01.75-.01v.02c0 .36-.14.65-.43.87-.28.22-.66.33-1.12.33s-.86-.13-1.16-.39c-.29-.26-.44-.61-.44-1.04v-1.06c0-.43.14-.78.43-1.04s.67-.39 1.14-.39.85.13 1.14.39c.29.26.43.61.43 1.04v.82zm-1.57-1.6c-.24 0-.44.07-.59.2-.15.13-.23.32-.23.54v.23h1.64v-.23c0-.23-.07-.41-.22-.54-.15-.14-.35-.2-.6-.2zm4.45.11h-.91v1.9c0 .15.04.27.13.36s.21.13.35.13h.38v.69h-.56c-.31 0-.57-.09-.76-.27a.942.942 0 0 1-.29-.71V31.2h-.66v-.67h.46c.08 0 .14-.02.19-.07.05-.05.07-.11.07-.19v-.72h.7v.97h.91v.67zm2.21-.77c.46 0 .83.12 1.1.34s.41.53.41.92v2.58h-.71v-.55h-.06c-.08.2-.22.35-.41.47-.19.11-.43.17-.7.17-.38 0-.69-.1-.92-.3-.23-.2-.34-.47-.34-.8s.11-.62.34-.82c.23-.21.53-.31.91-.31h1.14v-.36c0-.21-.07-.38-.21-.5s-.33-.18-.57-.18c-.21 0-.39.05-.53.14-.14.09-.21.22-.21.37v.08h-.73v-.12c0-.34.14-.61.41-.82.27-.21.63-.31 1.07-.31zm-.12 3.3c.26 0 .47-.06.64-.17.16-.12.25-.27.25-.45v-.39h-1.05c-.18 0-.32.04-.43.13-.11.09-.16.21-.16.35 0 .16.07.29.2.38.13.1.32.14.55.14zm4.9-3.2h.75v3.92c0 .38-.14.69-.42.92-.28.23-.66.35-1.13.35-.45 0-.81-.1-1.09-.31s-.42-.48-.42-.81v-.07h.74v.03c0 .17.07.31.21.42.14.11.33.16.56.16.25 0 .44-.07.59-.2.15-.13.22-.31.22-.53v-.88h-.04c-.08.19-.21.35-.41.47-.2.12-.42.18-.68.18-.37 0-.67-.11-.9-.34-.23-.23-.34-.53-.34-.9v-1.27c0-.37.11-.67.34-.9s.53-.34.9-.34c.26 0 .48.06.68.19.19.12.33.29.41.48h.04v-.58zm-.83 2.95c.25 0 .45-.07.6-.22.15-.14.23-.32.23-.53v-.85a.72.72 0 0 0-.23-.53c-.16-.15-.35-.22-.6-.22s-.44.07-.58.21c-.15.14-.22.32-.22.55v.83c0 .23.07.41.22.55.15.14.34.21.58.21zm4.74-3.59a.46.46 0 0 1-.35-.13c-.08-.08-.13-.2-.13-.34s.04-.25.13-.33c.09-.08.2-.12.34-.12s.26.04.34.12c.09.08.13.19.13.33s-.04.25-.13.34c-.09.09-.2.13-.34.13zm-.37 4.39v-3.75h.75v3.75h-.75zm3.73-3.85c.36 0 .64.11.86.32.22.21.33.49.33.84v2.68h-.75v-2.41c0-.22-.07-.4-.21-.53a.773.773 0 0 0-.55-.2c-.24 0-.44.07-.6.21-.15.14-.23.31-.23.51v2.41H49V30.5h.75v.58h.05c.08-.2.21-.36.41-.48.2-.12.43-.19.69-.19zm3.64 3.94c-.47 0-.85-.13-1.14-.39-.29-.26-.43-.61-.43-1.04v-1.06c0-.43.14-.78.43-1.04s.67-.39 1.14-.39.85.13 1.13.39c.29.26.43.61.43 1.04v1.06c0 .43-.14.78-.43 1.04s-.66.39-1.13.39zm0-.69c.24 0 .44-.07.59-.21.15-.14.22-.32.22-.54v-1.05c0-.22-.07-.41-.22-.54-.15-.14-.34-.21-.59-.21s-.44.07-.59.21a.71.71 0 0 0-.23.54v1.05c0 .22.08.41.23.54.15.14.35.21.59.21zm6.61-3.25c.34 0 .62.11.83.32.21.21.32.49.32.84v2.68h-.75v-2.42c0-.21-.07-.39-.2-.52s-.31-.19-.53-.19c-.23 0-.42.07-.56.21-.15.14-.22.3-.22.5v2.43h-.75v-2.42c0-.21-.07-.39-.2-.52s-.31-.19-.53-.19c-.23 0-.42.07-.56.21-.15.14-.22.3-.22.5v2.43h-.75v-3.75h.75v.56h.05c.08-.2.21-.35.39-.47.18-.12.4-.18.65-.18.27 0 .5.06.69.19.19.13.33.3.41.53h.04c.08-.21.22-.39.42-.52.2-.13.43-.2.71-.2zm5.56 3.94c-.56 0-1-.14-1.34-.41-.34-.27-.51-.63-.51-1.07v-.1h.84v.11c0 .24.09.43.28.58.19.15.43.22.74.22.28 0 .52-.06.71-.19.19-.13.28-.3.28-.52 0-.12-.03-.23-.1-.32a.866.866 0 0 0-.26-.24c-.11-.06-.23-.12-.37-.17-.14-.05-.29-.1-.44-.15-.15-.05-.31-.1-.46-.16-.15-.05-.3-.12-.44-.2-.14-.08-.26-.17-.37-.27s-.19-.23-.26-.38c-.06-.15-.1-.33-.1-.52 0-.43.16-.77.49-1.02.33-.25.75-.38 1.28-.38s.96.13 1.28.38c.32.25.48.59.48 1.01v.09h-.83v-.08c0-.21-.09-.38-.26-.52-.17-.13-.4-.2-.68-.2-.26 0-.48.06-.65.18-.17.12-.26.28-.26.48 0 .12.03.23.1.32s.15.17.26.23c.11.06.23.11.37.16.14.05.29.1.44.15.15.05.31.1.46.15s.3.12.44.2c.14.08.26.17.37.27s.19.23.26.39c.06.16.1.33.1.53 0 .44-.17.8-.51 1.07-.34.27-.78.41-1.34.41zm5.65-.09l-1.45-2.26-.54.64v1.62h-.79v-5.02h.79v2.3h.05l1.93-2.3h.94l-1.84 2.15 1.87 2.88h-.95zm4.64 0l-.97-1.78h-1.08v1.78h-.79v-5.02h2.11c.48 0 .87.15 1.16.44.29.29.43.68.43 1.17 0 .38-.09.71-.27.98-.18.27-.43.46-.75.56l1.1 1.87h-.92zm-2.05-4.29v1.78h1.24c.27 0 .48-.08.64-.24.16-.16.24-.38.24-.65s-.08-.49-.24-.65c-.16-.16-.37-.24-.64-.24h-1.24z"/></g></g></g></svg>